<svg width="252" height="47" viewBox="0 0 252 47" fill="none" xmlns="http://www.w3.org/2000/svg">
<path d="M0.4375 46V0.75H18.9375C29.125 0.75 35.375 6.5 35.375 15.75C35.375 21.9688 32.5312 26.4375 27.5625 28.6875L37 46H25.3125L17 30.4375H11.0625V46H0.4375ZM11.0625 21.9375H16.6875C21.6875 21.9375 24.375 20 24.375 15.75C24.375 11.5 21.6875 9.375 16.6875 9.375H11.0625V21.9375ZM56.5 46.625C45.875 46.625 39.375 40 39.375 29.1875C39.375 18.6875 45.9375 11.625 56.125 11.625C65.625 11.625 72.5 17.6875 72.5 28.9375V31.625H49.75V31.8125C49.75 36.1875 52.4375 39 56.6875 39C59.5625 39 61.6875 37.75 62.5625 35.75H72.375C71.125 42.375 65.3125 46.625 56.5 46.625ZM49.75 25.4375H62.6875C62.625 21.8125 60 19.25 56.375 19.25C52.625 19.25 49.9062 21.9062 49.75 25.4375ZM88.625 0.75L97.0625 15.25H97.4375L105.938 0.75H117.875L104.188 23.375L118.312 46H106.062L97.4375 31.375H97.0625L88.4375 46H76.25L90.3125 23.375L76.5625 0.75H88.625ZM145.25 31.375V12.0625H155.75V46H145.75V39.75H145.375C143.875 43.8125 140.125 46.4375 135 46.4375C128.062 46.4375 123.375 41.4375 123.375 33.6875V12.0625H133.938V31.6875C133.938 35.375 136 37.6875 139.375 37.6875C142.625 37.6875 145.25 35.4375 145.25 31.375ZM162.562 46V12.0625H172.562V18.25H172.938C174.375 14.125 177.875 11.625 182.562 11.625C187.25 11.625 190.875 14.1875 191.75 18.25H192.125C193.438 14.25 197.375 11.625 202.375 11.625C208.75 11.625 213.188 15.9375 213.188 23.125V46H202.625V25.5C202.625 22.0625 200.625 20.1875 197.812 20.1875C194.75 20.1875 192.938 22.375 192.938 25.625V46H182.812V25.375C182.812 22.1875 180.875 20.1875 178.062 20.1875C175.125 20.1875 173.125 22.4375 173.125 25.875V46H162.562ZM235.625 46.625C225 46.625 218.5 40 218.5 29.1875C218.5 18.6875 225.062 11.625 235.25 11.625C244.75 11.625 251.625 17.6875 251.625 28.9375V31.625H228.875V31.8125C228.875 36.1875 231.562 39 235.812 39C238.688 39 240.812 37.75 241.688 35.75H251.5C250.25 42.375 244.438 46.625 235.625 46.625ZM228.875 25.4375H241.812C241.75 21.8125 239.125 19.25 235.5 19.25C231.75 19.25 229.031 21.9062 228.875 25.4375Z" fill="black"/>
</svg>
