<svg width="53" height="53" viewBox="0 0 53 53" fill="none" xmlns="http://www.w3.org/2000/svg">
<circle cx="26.5" cy="26.5" r="26" stroke="#9F9F9F"/>
<path d="M32.9625 40.4295H20.0359C18.6279 40.3783 17.3162 39.701 16.4593 38.5826C15.6023 37.4643 15.2895 36.0216 15.6063 34.6488L15.9406 33.0608C16.3251 30.9112 18.173 29.3314 20.3563 29.2859H32.6421C34.8253 29.3314 36.6732 30.9112 37.0577 33.0608L37.392 34.6488C37.7088 36.0216 37.396 37.4643 36.5391 38.5826C35.6821 39.701 34.3705 40.3783 32.9625 40.4295Z" fill="#B2AAAA"/>
<path d="M27.1956 26.5H25.8027C22.7255 26.5 20.2309 24.0054 20.2309 20.9282V17.2508C20.2272 16.0084 20.7191 14.8158 21.5976 13.9372C22.4762 13.0587 23.6688 12.5668 24.9112 12.5705H28.0871C29.3296 12.5668 30.5222 13.0587 31.4007 13.9372C32.2792 14.8158 32.7712 16.0084 32.7674 17.2508V20.9282C32.7674 22.4059 32.1804 23.8231 31.1355 24.8681C30.0906 25.913 28.6734 26.5 27.1956 26.5Z" fill="#B2AAAA"/>
</svg>
